<?xml version="1.0" standalone="no"?>
<!DOCTYPE svg PUBLIC "-//W3C//DTD SVG 1.1//EN" "http://www.w3.org/Graphics/SVG/1.1/DTD/svg11.dtd" >
<svg>
<metadata>
Created by FontForge 20090914 at Thu Feb 23 22:25:03 2012
 By root
Typeface &#194;&#169; mmsarica.net 2004. All Rights Reserved
</metadata>
<defs>
<font id="CSICreamSourceInside" horiz-adv-x="1083" >
  <font-face 
    font-family="CSI Cream Source Inside"
    font-weight="400"
    font-stretch="normal"
    units-per-em="2048"
    panose-1="2 0 0 0 0 0 0 0 0 0"
    ascent="1638"
    descent="-410"
    x-height="1044"
    cap-height="1428"
    bbox="0 -415 1596 1846"
    underline-thickness="150"
    underline-position="-142"
    unicode-range="U+0020-U+2666"
  />
<missing-glyph horiz-adv-x="1229" 
d="M256 0v1280h1024v-1280h-1024zM288 32h960v1216h-960v-1216z" />
    <glyph glyph-name=".notdef" horiz-adv-x="1229" 
d="M256 0v1280h1024v-1280h-1024zM288 32h960v1216h-960v-1216z" />
    <glyph glyph-name=".null" horiz-adv-x="0" 
 />
    <glyph glyph-name="nonmarkingreturn" horiz-adv-x="569" 
 />
    <glyph glyph-name="space" unicode=" " horiz-adv-x="302" 
 />
    <glyph glyph-name="space" unicode="&#xa0;" horiz-adv-x="302" 
 />
    <glyph glyph-name="exclam" unicode="!" horiz-adv-x="399" 
d="M124 1459h56l60 -52l24 -56l8 -76v-736l-16 -68l-28 -56l-52 -28l-44 -4l-68 48l-28 56l-4 860l44 76q24 15 48 36zM88 303l132 -4l56 -36l20 -52l12 -68l-12 -60l-24 -52l-52 -24h-136l-60 32l-16 60l-8 68l16 56q6 29 32 48z" />
    <glyph glyph-name="quotedbl" unicode="&#x22;" horiz-adv-x="804" 
d="M108 1699h60l48 -12l40 -20l24 -32l12 -48l-4 -56l-28 -148l-12 -224l-32 -80l-40 -20l-48 -4l-48 12l-32 28l-8 48l-4 116l-28 148l-8 164l4 56l20 40l40 20q21 3 44 12zM540 1699h60l88 -28l12 -44l4 -56l-20 -324l-16 -44l-12 -104l-24 -32l-44 -12l-56 4l-40 16
l-32 84l-36 424l28 88z" />
    <glyph glyph-name="numbersign" unicode="#" horiz-adv-x="990" 
d="M624 1476l48 -12l56 -56l4 -392l32 -20l48 -8l60 -52l16 -44l-16 -40l-28 -28l-88 -28l-24 -28v-112l32 -24l12 4l32 -8l36 -20l44 -68l-16 -40l-24 -36l-116 -52v-336l-20 -36l-32 -24l-44 -12l-40 12l-36 20l-12 44l-4 336l-36 16h-112l-40 -16v-280l-20 -92l-68 -44
l-76 32l-20 36l-12 44v280l-16 40l-52 8l-36 16l-52 64l8 40l52 60l44 16h44l8 48v56l-8 48l-48 8l-72 40l-24 32l-8 28l32 48l28 28l36 20l52 4l12 40v340l16 40l60 52l40 4l44 -28l36 -76v-340l20 -32h112l48 8l12 44v336l12 44zM376 796q-20 -30 -20 -72v-68l8 -12
l76 -12h68l40 16v124l-8 12l-76 12h-88z" />
    <glyph glyph-name="dollar" unicode="$" horiz-adv-x="877" 
d="M380 1476l48 -12l64 -48l12 -100l12 -44l32 -24l96 -20l32 -24l40 -12l56 -60v-168l-32 -28l-24 -32l-44 -12l-52 4l-40 16l-20 36l-8 48l-32 24l-52 4l-44 12h-56l-96 -16l-20 -32v-56l72 -44l92 -16l40 -20l92 -20l36 -20l92 -20l76 -36l24 -32v-396l-60 -52l-116 -52
l-52 -4l-44 -12v-56l-12 -100l-28 -28l-72 -24l-56 20l-52 60l-4 108l-24 32l-52 4l-44 12l-148 80l-12 44v112l16 40l24 36l76 36l84 -28l64 -104l44 -12l52 -4l156 8l32 24l8 48v56l-72 44l-48 4l-44 12l-36 20l-96 20l-32 20l-100 16l-32 24l-44 12l-32 24v340l12 44
l100 68l128 40l20 36v56l8 48l24 32z" />
    <glyph glyph-name="percent" unicode="%" horiz-adv-x="1257" 
d="M1032 1472l56 -28l44 -40l12 -36l-40 -72l-344 -472l-40 -44l-60 -100l-36 -44q-23 -17 -36 -48l-316 -416q-10 -27 -36 -44l-28 -56l-36 -44l-52 -28l-60 16l-40 44l-8 56l148 196l60 100l424 556l28 52l100 144l40 44l172 232q23 13 48 32zM232 1464h52l116 -36
l104 -104l12 -56l20 -44l8 -60l-40 -96l-56 -80l-88 -52l-96 -16l-124 24l-76 68l-56 84l-8 124l8 60l52 88l76 60zM264 1288l-68 -32l-16 -60l8 -72l92 -28l56 40l28 68l-40 52q-26 18 -60 32zM864 548h52l60 -28l52 -16l72 -60l48 -88l4 -60l-8 -128l-60 -76l-72 -64
l-112 -20l-120 16l-84 52l-32 36l-40 92l-12 56v56l48 104l104 92l56 16zM876 372l-56 -40q-23 -23 -28 -60q7 -34 32 -64q26 -19 64 -24l76 20l12 80q-5 35 -36 60q-26 18 -64 28z" />
    <glyph glyph-name="ampersand" unicode="&#x26;" horiz-adv-x="1299" 
d="M448 1456h56l84 -24l48 -60v-48l-24 -32l-16 -36l-44 -12l-32 -20l-152 -12l-40 -12l-72 -36v-244l84 -44l360 -20l44 8l8 44l4 160l16 36l64 44l36 4l52 -20l28 -24l16 -36l8 -48l4 -156l44 -12l48 -4l84 -24l44 -64l4 -36l-48 -76l-32 -24l-40 -12h-56l-44 -8l-8 -44
l-4 -372l-12 -44l-64 -44l-44 -12l-32 -20l-80 -28l-36 -20l-208 -24l-228 24l-32 24l-44 8l-108 52l-64 48l-20 32v432l16 40l24 28l36 20l68 12l-4 20l-24 28l-48 8l-32 24l-4 480l28 28l104 56l32 24l44 8l32 24l136 24zM404 616l-52 -8l-120 -52l8 -48l-4 -224l124 -48
l104 -8l164 8l40 20l84 28v284l-12 44z" />
    <glyph glyph-name="quotesingle" unicode="'" horiz-adv-x="393" 
d="M108 1698h60l48 -12l40 -20l24 -32l12 -48l-4 -56l-28 -148l-12 -224l-32 -80l-40 -20l-48 -4l-48 12l-32 28l-8 48l-4 116l-28 148l-8 164l4 56l16 44z" />
    <glyph glyph-name="parenleft" unicode="(" horiz-adv-x="644" 
d="M396 1624h80l36 -40q24 -18 28 -52l4 -16l-8 -52l-132 -104l-68 -84l-28 -48l-16 -64l-28 -48l-16 -140l-20 -60v-204l8 -12l32 -200l44 -112l60 -92l40 -40l88 -68q24 -12 40 -40v-56l-24 -68l-52 -24h-56l-116 56l-80 76l-36 44l-84 144l-16 64l-28 48l-8 72l-32 124
l-8 224l8 136l32 136l8 72l28 48l44 112l36 44l24 52l120 116l52 24q20 17 44 32z" />
    <glyph glyph-name="parenright" unicode=")" horiz-adv-x="633" 
d="M104 1632l68 -12l128 -104q22 -13 40 -40l72 -84l124 -344v-452l-12 -64l-24 -56l-8 -68l-28 -52l-20 -60l-28 -48l-68 -88l-168 -144l-60 -16l-68 12l-36 44l-16 60l20 60l44 36l52 24l44 36l36 40l76 160l48 260l-4 228l-44 192l-28 48l-20 56l-28 52l-36 44l-44 32
q-17 19 -48 28l-40 40l-28 52l4 56l44 52q24 12 56 20z" />
    <glyph glyph-name="asterisk" unicode="*" horiz-adv-x="940" 
d="M420 1398l84 -60l16 -60v-140l20 -48l48 24l60 12l48 24l64 8l44 -28l28 -44l8 -32l-40 -64l-52 -16l-44 -28l-60 -12l-72 -40l80 -92l28 -44l20 -52l16 -12l-44 -72l-40 -28l-52 8l-40 32l-120 152l-36 -36l-28 -44l-64 -76l-40 -32l-36 -8l-56 36l-28 44l-8 28l20 16
l20 52l96 120l-28 32l-48 24l-60 8l-44 28q-27 5 -48 28l-32 40l16 48l28 40l48 24l172 -44l44 -24l12 60l-4 140l20 48z" />
    <glyph glyph-name="plus" unicode="+" horiz-adv-x="1137" 
d="M500 1228l60 -8l44 -20l36 -92l4 -256q11 -21 40 -24l252 -4l52 -12l28 -36l20 -44l-36 -96l-36 -28l-56 -8l-256 -4l-12 -52v-192l-8 -56l-20 -44l-32 -32l-44 -20l-60 8l-36 28l-24 40l-16 48v260l-48 16h-256l-72 56l-24 40l8 60l28 36l40 24l56 8l252 4l16 52l4 252
l48 80z" />
    <glyph glyph-name="comma" unicode="," horiz-adv-x="715" 
d="M288 271h240q30 -3 52 -28l36 -44v-44l-388 -523l-60 -20h-80l-60 20l-28 52v44l8 28l32 48l44 116l32 48l20 59l108 208q18 21 44 36z" />
    <glyph glyph-name="hyphen" unicode="-" horiz-adv-x="947" 
d="M140 793l600 -4l56 -12l52 -84l-12 -56l-32 -36l-36 -28l-60 -8h-604l-44 24l-36 32l-24 44v48l12 8l28 40l44 24z" />
    <glyph glyph-name="hyphen" unicode="&#xad;" horiz-adv-x="947" 
d="M140 793l600 -4l56 -12l52 -84l-12 -56l-32 -36l-36 -28l-60 -8h-604l-44 24l-36 32l-24 44v48l12 8l28 40l44 24z" />
    <glyph glyph-name="period" unicode="." horiz-adv-x="544" 
d="M64 440h312l32 -20l28 -28l12 -40v-200l-12 -40l-52 -52l-312 4l-32 20l-40 64v200l36 68z" />
    <glyph glyph-name="slash" unicode="/" horiz-adv-x="1232" 
d="M1012 1472q31 -6 56 -28l44 -36l20 -64q-2 -31 -28 -56l-28 -52l-724 -988l-28 -52l-144 -180l-64 -16l-60 16l-36 44q-17 26 -20 64l60 104l244 328l60 100l388 508l60 104l148 176q24 15 52 28z" />
    <glyph glyph-name="zero" unicode="0" horiz-adv-x="1011" 
d="M424 1456h76l184 -36l48 -28l104 -44l36 -36l44 -32l-4 -1108l-32 -40l-44 -32l-56 -20l-44 -28l-108 -40l-212 -12l-136 12l-44 28l-64 12l-40 32l-56 20l-44 32l-24 48l-8 1092l88 72l104 44l48 28zM444 1224l-160 -28l-52 -36v-884l84 -40l172 -12l84 4l64 32
q33 5 56 32l4 868l-32 12l-56 36l-124 8z" />
    <glyph glyph-name="one" unicode="1" horiz-adv-x="909" 
d="M420 1456h44l64 -56l24 -56l4 -1112l64 -12h120l64 -60l8 -56l-4 -12q-4 -29 -28 -52l-40 -36l-636 -4l-56 24l-36 48l-12 28l4 36l32 48l48 32l228 8l4 876q-23 19 -56 20l-156 4l-44 40q-22 16 -28 48v56l40 56l64 20h160l80 80z" />
    <glyph glyph-name="two" unicode="2" horiz-adv-x="1078" 
d="M436 1448l120 -4l100 -24l60 -4l36 -28l48 -12l36 -28l44 -16l68 -56l8 -56v-124l-32 -152l-288 -268l-28 -36l-104 -84l-56 -64l-68 -56l-56 -68l-68 -56l-12 -48v-36l16 -8h620l48 -16l32 -28l16 -48l-4 -60l-60 -64l-860 -4l-44 20v304l32 92l352 328l56 68l100 84
l56 68l36 24l64 64l16 44v56l-84 44l-108 16l-212 -20l-36 -24l-52 -12l-32 -24l-92 -20l-60 16l-32 32l-12 52l4 48l28 36l36 28l44 16l36 28l48 12l40 24z" />
    <glyph glyph-name="three" unicode="3" horiz-adv-x="1089" 
d="M440 1456l120 -4l100 -24l56 -4l48 -16l124 -60l36 -28l44 -16l24 -36l-4 -428l-8 -52l-44 -20l-56 -8l-24 -36l20 -16l56 -4l36 -28l20 -40v-432l-12 -52l-152 -92l-48 -12l-88 -36l-236 -12l-168 16l-36 24l-96 28l-116 68l-24 40l-12 48l16 48l28 36l36 20l40 8
l52 -28l48 -16l32 -24l56 -8l36 -24l112 -12l176 8l40 20l48 12q23 6 32 32v244q-2 21 -24 32l-88 32l-56 8l-116 4l-36 28l-52 72l4 56l28 32l36 28l48 16l164 20l44 16l36 24l12 48v184l-20 32l-40 24l-48 12l-172 12l-112 -12l-48 -12l-88 -36l-36 -24l-52 -12h-40
l-60 16l-24 36l-12 52l16 40l52 68l48 16l32 28l52 8l40 24z" />
    <glyph glyph-name="four" unicode="4" horiz-adv-x="1139" 
d="M684 1448l140 -4l68 -28l24 -124v-720l64 -16q26 -6 48 -28q25 -17 36 -48l8 -40l-32 -72l-48 -28l-72 -8l-4 -200l-20 -76q-11 -24 -40 -36l-64 -20l-52 24l-40 44l-16 60l-4 204l-612 8l-60 60l-8 60v156l36 56l592 756zM668 1144l-24 -44l-180 -216l-20 -44l-96 -100
l-24 -44l-104 -128l20 -8h436l8 16v524q-2 22 -16 44z" />
    <glyph glyph-name="five" unicode="5" horiz-adv-x="1080" 
d="M72 1436l784 -4l44 -16l28 -32l16 -48l-4 -56l-60 -60l-56 -8h-484l-48 -12v-240l40 -20h180l152 -32l56 -4l128 -52l112 -72l20 -40v-544l-16 -48l-40 -20l-32 -28l-44 -16l-36 -24l-48 -12l-88 -36l-228 -12l-164 16l-40 24l-92 28l-116 68l-28 32l-8 52l8 56l28 28
l40 24l36 8l100 -40l32 -24l48 -12l40 -24l108 -12l172 4l136 48v364l-76 44l-108 12l-480 4l-28 32l-4 664z" />
    <glyph glyph-name="six" unicode="6" horiz-adv-x="1089" 
d="M440 1460h104l176 -32l108 -44l28 -24l40 -12l80 -76l16 -36l-12 -40l-44 -60l-56 -12l-76 12l-136 72l-188 16l-184 -20l-28 -24l-36 -16l4 -252l28 -20l436 -28l36 -20l80 -20l28 -24l40 -12l24 -28l36 -16l36 -68v-460l-32 -72l-36 -16l-24 -28l-40 -12l-68 -36
l-44 -8l-32 -20l-216 -24l-204 20l-68 32l-44 8l-28 24l-40 12l-64 40l-24 28l-16 36v1080l28 28l128 76l40 12l32 20zM244 656l-12 -48v-296l16 -40l48 -8l36 -24l52 -8h228l80 36l48 12v292l-16 40l-44 12l-40 24z" />
    <glyph glyph-name="seven" unicode="7" horiz-adv-x="1035" 
d="M104 1452h800l12 -8q15 -34 16 -76l4 -256l-12 -92l-300 -520l-24 -68l-196 -348l-44 -52l-56 -32l-68 24q-28 15 -44 48l-8 64l60 144l428 756q9 30 36 56l4 68l-8 68h-576q-34 2 -68 20l-44 52q-15 31 -16 72l40 52q28 18 64 28z" />
    <glyph glyph-name="eight" unicode="8" horiz-adv-x="1082" 
d="M432 1460l160 -8l144 -28l168 -84l40 -40l8 -36v-460q-18 -24 -52 -32l-48 -32l-12 -20l44 -8l60 -24l40 -44v-420l-20 -64l-152 -100l-68 -16l-56 -28l-204 -16l-180 16l-128 44l-48 32q-30 5 -60 28l-48 32l-20 64v420l32 52l60 24l52 8l-8 12q-15 25 -48 36l-60 24
l-4 492l36 48l164 84zM480 1228l-140 -16l-36 -16l-32 -24l-8 -40v-208l20 -32l36 -16l188 -20l140 16l40 12l20 28l12 40v208l-60 44zM400 616l-52 -8l-116 -52l4 -280l44 -8l80 -36l268 4l116 52v276l-44 16l-36 24l-44 8z" />
    <glyph glyph-name="nine" unicode="9" horiz-adv-x="1068" 
d="M412 1452l156 -4l172 -32l28 -20l40 -12l104 -52l60 -44v-1120l-24 -32l-40 -12l-24 -28l-36 -12l-32 -20l-156 -52l-192 -12l-188 20l-32 20l-40 8l-112 44l-24 28l-36 16l-24 24l-12 40v52l12 40l64 40l32 4l88 -32l28 -24l76 -24l32 -20l44 -8l244 4l116 40l16 32v256
l-40 12l-344 12l-36 16l-92 12l-68 36l-40 12l-28 24l-36 12l-28 28l-32 20l-8 44v460l8 44l60 44l40 12l28 24l80 24l28 20l132 24zM464 1220l-160 -20l-36 -24l-44 -16l4 -288l76 -40l156 -20h288l4 348l-40 16l-36 24l-156 20h-56z" />
    <glyph glyph-name="colon" unicode=":" horiz-adv-x="549" 
d="M108 1107h216l44 -8l36 -16l32 -24l16 -36l4 -160l-12 -96l-56 -48l-96 -12l-204 8l-32 20l-28 28l-20 32l-8 208l16 36l24 32l36 16zM68 443h312l32 -20l28 -28l12 -40v-200l-12 -40l-52 -52l-312 4l-32 20l-40 64v200l36 68z" />
    <glyph glyph-name="semicolon" unicode=";" horiz-adv-x="814" 
d="M276 935h212l44 -8l36 -16l32 -24l8 -44l4 -152l-12 -96l-56 -48l-44 -8l-208 -4l-44 8l-60 48l-16 88l-4 100l16 92l16 36zM288 271h240q29 -1 60 -20l24 -56l-12 -72l-36 -40l-236 -319l-28 -52l-68 -92l-60 -8h-92q-28 4 -52 28l-28 52l36 116l60 100l16 64l60 99
l20 60l60 100z" />
    <glyph glyph-name="semicolon" unicode="&#x37e;" horiz-adv-x="814" 
d="M276 935h212l44 -8l36 -16l32 -24l8 -44l4 -152l-12 -96l-56 -48l-44 -8l-208 -4l-44 8l-60 48l-16 88l-4 100l16 92l16 36zM288 271h240q29 -1 60 -20l24 -56l-12 -72l-36 -40l-236 -319l-28 -52l-68 -92l-60 -8h-92q-28 4 -52 28l-28 52l36 116l60 100l16 64l60 99
l20 60l60 100z" />
    <glyph glyph-name="less" unicode="&#x3c;" horiz-adv-x="785" 
d="M548 1476l112 -52l16 -56l-12 -68l-272 -372l-28 -56l-100 -140l340 -464l60 -100l20 -56l-20 -60l-44 -36l-64 -16l-56 28l-40 40l-460 668l28 56l432 612l40 40z" />
    <glyph glyph-name="equal" unicode="=" horiz-adv-x="1144" 
d="M104 856h844l68 -52l24 -56l4 -40l-20 -16l-32 -48l-60 -20l-72 -8h-688l-92 20q-26 8 -44 36l-32 52l-4 24l56 76zM88 420h864l52 -24l32 -48v-72l-32 -44l-48 -32l-860 4q-29 4 -52 28l-32 44l-8 40l8 24l32 48q19 18 44 32z" />
    <glyph glyph-name="greater" unicode="&#x3e;" horiz-adv-x="784" 
d="M104 1472l60 -24l48 -32l28 -52l172 -228l28 -52l200 -280l24 -56l20 -24l-20 -20l-464 -656l-44 -36l-56 -12l-60 20l-36 44l-4 76q7 28 32 48l364 516l8 32l-8 36l-140 180l-28 52l-172 228l-56 104l12 68l40 40z" />
    <glyph glyph-name="question" unicode="?" horiz-adv-x="1043" 
d="M404 1444h160l60 -20l68 -8l112 -44l48 -28l92 -68l-4 -308q-5 -30 -32 -48l-312 -316l-32 -44q-15 -24 -16 -60l-12 -68l-44 -36l-60 -20l-52 24l-40 40q-14 28 -16 64v136l44 56l348 356l4 72q-3 31 -32 48l-48 28l-140 12l-148 -12l-56 -24l-60 -16l-48 -32l-80 -16
l-52 8l-40 36l-16 64q1 33 20 64l40 36l56 24l44 32l64 12l52 28l72 8zM372 300h136l60 -32l16 -56v-144l-28 -52l-56 -16l-148 4l-40 36l-28 48v136l40 48q18 18 48 28z" />
    <glyph glyph-name="at" unicode="@" horiz-adv-x="1075" 
d="M440 1456h76l184 -32q29 -1 56 -20l48 -20l44 -28l56 -20l44 -28l32 -40l-4 -560l-144 -92l-56 -16l-44 -24l-236 -44l-56 28l-40 36l-20 52l4 344l44 44l48 24l44 4l56 -40l24 -52l4 -176l28 -8l56 12l44 28l8 64l-4 272l-52 32l-60 12l-136 12l-196 -20l-44 -28
q-16 -23 -16 -56v-840l76 -20l52 -24h272l44 28l60 12l44 28l108 36l48 -28l32 -40l20 -44q-1 -27 -24 -48l-32 -44l-40 -32l-52 -20l-44 -28l-60 -12l-44 -28l-204 -12l-196 16l-48 24l-60 12l-44 32l-52 16l-44 32l-32 40l-12 60v1012q0 29 20 56l136 80l56 16l48 24l64 8
z" />
    <glyph glyph-name="A" unicode="A" horiz-adv-x="1184" 
d="M444 1448h188l64 -28l28 -64l20 -72q2 -35 20 -72l20 -72q5 -33 28 -64l12 -80l28 -64l12 -80l32 -60l12 -80l28 -64l12 -80l28 -64l16 -80l28 -64l12 -76l28 -68l16 -72l12 -16l-20 -48q-7 -32 -36 -56l-72 -20l-64 28l-40 52l-56 224l-32 60l-12 52l-448 -4l-84 -316
l-36 -56l-72 -44l-56 16l-52 40l-8 84l12 80l32 64l16 76l188 640q5 32 28 64l12 80l28 64l12 80l32 60l20 72q28 15 64 28zM552 1152l-32 -24l-28 -124l-20 -32l-12 -88l-36 -68l-4 -48l-12 -40l-20 -32l-4 -44l36 -12h256l12 8l-8 72l-20 32l-12 40l-12 88l-24 28l-12 88
l-20 32q-21 103 -28 124z" />
    <glyph glyph-name="B" unicode="B" horiz-adv-x="1081" 
d="M36 1424l620 -12l52 -28l64 -16l152 -84l24 -52v-452l-8 -8l-64 -16l-36 -40l104 -44l36 -44l-4 -452l-12 -4l-32 -48l-156 -80l-68 -12l-52 -28l-620 -4q-27 13 -36 44v1336zM244 1200l-12 -44v-264l8 -44l44 -8h212l140 20l68 36l12 40v212l-84 20l-32 24zM244 600
l-12 -44l4 -332l48 -8h224l96 12l40 20l48 8l36 16l12 44v224l-72 40l-92 20h-332z" />
    <glyph glyph-name="C" unicode="C" horiz-adv-x="1082" 
d="M440 1460l116 -4l192 -40l156 -76l32 -28l36 -20l8 -52l-4 -172l-36 -84l-40 -16l-56 -4l-44 12l-52 68l-8 48v60l-60 52l-208 20l-164 -16l-72 -44l-4 -868l32 -24l48 -12l32 -24l108 -8l168 8l36 20l48 12l36 20l4 112l12 48l60 56l56 4l44 -12l32 -28l32 -84v-176
l-20 -40l-28 -32l-32 -24l-76 -40l-92 -28l-32 -24l-212 -20l-212 24l-36 20l-88 28l-112 64l-24 32l-16 44v1048l16 44l40 16l32 28l40 16l36 24l48 12l32 24l104 12z" />
    <glyph glyph-name="D" unicode="D" horiz-adv-x="1082" 
d="M36 1428l664 -16l44 -28l64 -16l96 -52l44 -32l28 -48l4 -1048l-32 -40l-88 -64l-224 -80l-596 -4l-40 36v1352zM244 1204l-12 -84v-892l32 -8h280l148 40q34 8 48 44v840l-132 56z" />
    <glyph glyph-name="E" unicode="E" horiz-adv-x="960" 
d="M36 1428h616l92 -12l20 -32l24 -24l4 -52l-12 -40l-48 -52l-44 -12h-408l-40 -8l-8 -44v-256l12 -36h256l92 -12l28 -24l40 -64l4 -20l-44 -84l-40 -16l-300 -4l-44 -8l-4 -400l44 -8l508 -8l28 -20l24 -28l12 -40l12 -16l-12 -12l-12 -40l-20 -32l-32 -16l-48 -8l-712 4
l-24 28v1328l12 44z" />
    <glyph glyph-name="F" unicode="F" horiz-adv-x="965" 
d="M36 1448h692l76 -12q23 -17 40 -48l16 -20l4 -32l-32 -68l-52 -36l-36 -8h-472q-38 -1 -40 -44v-260q0 -39 44 -40l324 -4l64 -40l20 -68l-16 -68q-17 -23 -48 -40l-344 -4q-37 -1 -44 -40v-516l-36 -52q-20 -24 -52 -36l-20 -12l-100 40l-24 152v1204q15 27 36 52z" />
    <glyph glyph-name="G" unicode="G" 
d="M440 1460l128 -4l48 -16l116 -16l40 -24l48 -16l40 -28l48 -16l72 -60v-192l-32 -100l-48 -20l-60 -4l-48 16l-48 84l-4 60l-12 52l-44 24l-52 12l-160 12l-140 -12l-48 -16l-40 -24l-12 -52l4 -840l52 -12l40 -24l56 -12l60 -4l188 8l40 24l68 20v168q0 26 -24 40
l-128 4l-40 24l-24 44l-12 44l20 44l72 60l320 4l48 -20l8 -56v-392l-8 -56l-24 -44l-124 -68l-96 -36l-40 -24l-200 -16l-216 24l-40 24l-56 12l-36 28l-52 16l-72 56l-16 48v1040l16 52l120 76l144 52z" />
    <glyph glyph-name="H" unicode="H" horiz-adv-x="1100" 
d="M112 1480l44 -16l32 -24l44 -76v-464l24 -32h464l48 8l8 48l4 460l16 44l72 44h52l68 -48l8 -52l4 -1212l-12 -104l-32 -28l-68 -28l-56 24l-32 24l-20 40l-4 520l-32 24h-464l-44 -12l-4 -516l-48 -72l-40 -16l-44 -8l-40 16l-36 24l-24 92l4 1216l12 44l20 40l36 24z
" />
    <glyph glyph-name="I" unicode="I" horiz-adv-x="917" 
d="M128 1428h520l80 -8q28 -12 48 -40l20 -68l-28 -60l-44 -40l-168 -8q-26 -18 -28 -56v-920l20 -8h172q33 -4 56 -32q22 -17 40 -48l-8 -80l-40 -44q-31 -15 -72 -16h-608q-29 9 -48 36l-36 56l-4 16l8 44l44 56l76 12h136l28 8v952q-24 22 -60 24l-136 4l-12 20l-44 44
l-8 36l4 40q5 30 28 60z" />
    <glyph glyph-name="J" unicode="J" horiz-adv-x="703" 
d="M460 1460h56l44 -32l44 -88v-1156l-24 -40l-44 -20l-36 -32l-48 -16l-40 -24l-52 -12l-40 -24l-176 -16l-64 4l-44 20l-28 40l-8 56l20 48l76 52l176 16l40 24l52 12l4 1088l24 40z" />
    <glyph glyph-name="K" unicode="K" horiz-adv-x="1138" 
d="M112 1476l48 -24l36 -28l28 -40l8 -60v-404l20 -28l36 32l92 108l108 92l60 76l276 260l52 8l44 -24l36 -32l20 -48l4 -40l-16 -8l-20 -48l-436 -436l-72 -60l600 -612l4 -44l-16 -68l-40 -28l-48 -20l-48 20l-40 28l-140 128l-60 76l-108 92l-92 108l-40 28l-164 172
l-12 -52v-472l-12 -56l-28 -36l-44 -24l-40 -8l-60 20l-32 36l-16 120v1140l8 60l20 48q58 37 84 48z" />
    <glyph glyph-name="L" unicode="L" horiz-adv-x="982" 
d="M116 1456q28 -6 48 -28l40 -32l28 -48v-1088q0 -30 32 -40h508l52 -8l4 -12l36 -36l12 -64l-20 -52l-36 -36l-60 -12l-724 4q-25 10 -36 40v1236l8 68l16 56q65 41 92 52z" />
    <glyph glyph-name="M" unicode="M" horiz-adv-x="1135" 
d="M96 1452h144l64 -8l44 -32l12 -56l28 -48l8 -60l24 -48l52 -168l12 -60l44 -80l12 76l20 48l32 112l24 52l8 60l24 48l12 60q3 26 24 48l32 44l60 12h144l64 -8l36 -36l16 -56v-1224l-12 -56l-36 -40l-64 -32l-88 32l-20 52l-8 1000l-12 -56q-3 -26 -24 -48l-32 -112
l-24 -48l-8 -64l-28 -44l-8 -64l-36 -36l-44 -28l-140 -4l-52 20l-28 44l-20 52l-28 116l-24 48l-12 60l-28 44l-12 92l-12 -24l-4 -932l-68 -76l-48 -16l-56 16q-25 9 -40 36l-20 124v1148l12 60l28 48z" />
    <glyph glyph-name="N" unicode="N" horiz-adv-x="1084" 
d="M844 1476l60 -12l40 -28l40 -100v-1168l-8 -60l-20 -48l-36 -36l-132 -4l-64 8l-60 76l-16 52l-28 44l-112 228l-20 52l-28 40l-16 52l-68 140l-28 40l-12 56l-32 40l-12 52l-28 40l-16 52l-16 -52v-828l-20 -48l-28 -40l-68 -24l-84 32l-20 52l-12 56v1168l8 60l16 52
l48 24l132 4l56 -16l28 -40l112 -232l28 -40l16 -56l24 -40l16 -56q21 -14 28 -40l44 -92l28 -44l16 -52l28 -40l16 -52l28 -44l16 -48l28 -44q4 -19 20 -28l8 60v828l28 40z" />
    <glyph glyph-name="O" unicode="O" 
d="M440 1456h80l196 -32l48 -28l60 -16l140 -88q15 -25 16 -60l-4 -1048l-40 -52l-44 -32l-56 -20l-48 -28l-60 -16l-52 -24l-140 -12l-204 8l-72 16l-160 68l-84 68l-16 60l4 1064l136 92l60 16l48 28l132 20zM472 1220l-172 -20l-60 -32l-8 -88v-804l100 -36l80 -12h184
l140 44l4 888l-92 48z" />
    <glyph glyph-name="P" unicode="P" horiz-adv-x="1057" 
d="M36 1444l592 -8l220 -80l44 -36l52 -20l12 -64l-4 -596l-132 -96l-60 -12l-44 -32l-72 -4l-56 -20l-68 -8l-276 -4l-8 -12l-4 -368l-32 -44l-48 -28l-56 -12l-52 20q-20 18 -28 48l-16 60v1276zM244 1220l-12 -52l4 -444q15 -19 44 -20l368 16l84 40l4 380l-28 36l-52 12
l-44 20l-56 8z" />
    <glyph glyph-name="Q" unicode="Q" horiz-adv-x="1252" 
d="M440 1461h88l220 -44l116 -60q31 -7 56 -36l56 -32l4 -1048l-8 -40l24 -16l124 -140l32 -56q-2 -33 -28 -64l-44 -44q-26 -19 -64 -24l-52 36l-132 128q-19 25 -56 32q-30 -5 -60 -28l-224 -24l-176 16l-136 44l-164 100l-16 72l4 1052l52 36q19 22 52 36l56 32l132 44
l76 8zM472 1225l-160 -16l-76 -40l-4 -864q6 -20 24 -32l48 -12l36 -20l104 -12l168 8l-76 88l-32 24l-80 96l-4 36l24 52l28 32l32 24l56 4l72 -44l84 -92l8 -16l12 16l4 692l-24 32l-36 24z" />
    <glyph glyph-name="R" unicode="R" horiz-adv-x="1090" 
d="M36 1444l600 -8l44 -8l108 -40l32 -24l36 -12l64 -36l28 -24l4 -600l-12 -40l-88 -64l-108 -44l-84 -16l24 -64l256 -252l40 -60l12 -40l-12 -40l-48 -52l-76 -16l-68 32l-456 456l-92 4l-8 -44v-352l-36 -64l-68 -36l-40 4l-36 12q-29 24 -40 64l-8 40l-4 1260
q8 34 36 64zM244 1220l-12 -52l4 -432q18 -16 48 -16l244 4l96 28l56 8l28 32l12 52l4 308l-28 24l-88 36z" />
    <glyph glyph-name="S" unicode="S" horiz-adv-x="1075" 
d="M420 1444h136l52 -16l116 -20l96 -44l120 -84l4 -200l-8 -60l-40 -28q-13 -22 -40 -28h-60l-72 64l-8 128l-92 44l-144 12l-164 -20l-40 -28q-15 -18 -16 -48v-136l8 -60l44 -20l60 -12l40 -24l60 -8l48 -24l108 -24l44 -24l60 -8l48 -20l108 -28l88 -52v-472l-8 -60
l-48 -24l-36 -32l-52 -16l-40 -28l-56 -12l-44 -20l-60 -12l-308 4l-160 52l-88 52l-48 20l-24 44l-4 200l16 52l32 36l76 24l68 -36l24 -44l8 -60v-68l148 -56l260 4l44 24l52 16q23 10 24 40v204l-36 28l-48 20l-56 12l-48 24l-56 8l-100 36l-60 8l-44 28l-56 12l-96 36
l-60 8l-40 28l-16 52l4 472l80 60l136 68l116 20z" />
    <glyph glyph-name="T" unicode="T" horiz-adv-x="1137" 
d="M104 1448l852 -4l52 -28l32 -84l-44 -72l-48 -32l-284 -4l-12 -8l-4 -1084l-48 -108l-56 -24l-60 16l-48 32l-20 56l-8 60v1020q-4 30 -36 40h-232l-72 8l-36 40l-32 48v56l48 52z" />
    <glyph glyph-name="U" unicode="U" horiz-adv-x="1084" 
d="M120 1492l76 -44l24 -36l12 -44v-1048l24 -36l32 -24l152 -24h104l148 28l36 24l12 44v1048l20 40l28 32l32 24l40 12l80 -36l36 -84l4 -1160l-20 -40l-64 -52l-76 -40l-48 -12l-32 -24l-56 -4l-88 -28l-108 -8l-108 8l-44 16l-100 20l-32 24l-88 28l-100 72l-16 44v1108
l16 100l28 32l36 24z" />
    <glyph glyph-name="V" unicode="V" horiz-adv-x="1119" 
d="M112 1456l40 -20l60 -52l20 -96l20 -36l28 -140l20 -36l4 -52l12 -44l20 -40l16 -96l20 -36l16 -96l32 -80l12 -100l20 -40l20 -92l36 -76l16 16l4 52l12 44l20 36l4 52l12 48l20 32l12 100l36 80l12 100l24 36l4 48l12 44l20 36l12 104l32 80l16 96l24 36l12 40l68 48
l36 4l76 -56l24 -32l4 -52l-32 -84l-16 -96l-20 -36l-16 -96l-20 -36l-12 -44l-4 -56l-32 -80l-16 -96l-20 -36l-16 -96l-32 -84l-4 -52l-32 -80l-16 -96l-20 -36l-12 -104l-40 -72l-28 -32l-220 -4l-44 16l-24 28l-20 40l-8 48l-20 36l-16 96l-16 44l-28 136l-20 40l-20 92
l-20 36l-12 100l-36 80l-12 100l-20 36l-12 44l-4 52l-20 40l-12 44l-4 52l-36 76l-8 104l8 52l28 28z" />
    <glyph glyph-name="W" unicode="W" horiz-adv-x="1529" 
d="M100 1456q33 -5 60 -28l48 -32l80 -336l8 -72l36 -132l4 -76l36 -132l8 -72l20 -64l20 -144l20 20l4 56l28 76l20 148l24 60l4 76l52 196l52 28q32 14 72 16h64l72 -28q18 -21 28 -56l24 -60l20 -144l20 -64l24 -140l20 -64l16 -120l52 136l4 80l36 128l4 80l28 56l8 72
l76 340l8 72q6 31 28 56l44 40q19 20 52 24l52 -28q27 -13 40 -44l12 -64l-20 -144l-24 -60l-20 -144l-20 -64l-8 -76l-56 -272l-20 -64l-20 -144l-20 -64l-8 -76l-36 -128q-5 -27 -28 -52l-60 -28h-164q-30 5 -56 28l-32 52l-12 68l-24 60l-4 76l-48 204l-24 56l-16 68
l-20 -124l-24 -60l-20 -144l-24 -60l-24 -144l-28 -52q-21 -21 -56 -28h-168l-56 24l-36 48l-24 140l-28 56v56l-16 92l-24 60l-4 80l-36 128l-4 80l-36 128l-8 76l-20 64l-20 144l-20 60l-12 72v52l8 24l44 40z" />
    <glyph glyph-name="X" unicode="X" horiz-adv-x="1149" 
d="M144 1472l44 -24l68 -68l124 -208l32 -36l16 -48l60 -72l16 -48l40 12l100 164l32 32l20 48l56 76l20 48l56 76l40 28l52 16l84 -48l16 -52l-4 -60l-48 -88l-56 -76l-20 -44l-208 -328l4 -44l20 -44l184 -284l20 -44l56 -76l20 -48l56 -76l8 -52l-48 -84l-52 -16l-40 -4
l-60 32l-80 116l-20 48l-56 76l-20 48l-32 36l-44 84l-32 36l-20 44l-32 12l-12 -4l-16 -48l-60 -72l-16 -52l-32 -32l-28 -40l-20 -48l-32 -36l-44 -84l-32 -36l-20 -48l-44 -20l-52 -12l-48 16l-56 76l-4 32l8 24l72 128l32 32l24 48l52 76l20 48l32 36l44 88l32 32l48 88
l-4 60l-28 36l-20 48l-56 76l-176 292l-32 32l-16 96l24 64z" />
    <glyph glyph-name="Y" unicode="Y" horiz-adv-x="1123" 
d="M120 1472l68 -32l44 -52l28 -68l204 -380l28 -68h44l8 36l40 56l232 448l76 60l48 -12l56 -40l28 -64l-24 -72l-128 -260q-23 -25 -36 -60l-200 -384l-8 -28l4 -444l-32 -68l-60 -32l-48 -8l-28 16q-31 15 -48 52l-24 72v388l-12 84l-364 704q-15 23 -16 56l16 8l40 60z
" />
    <glyph glyph-name="Z" unicode="Z" horiz-adv-x="1073" 
d="M168 1428h612l96 -16l48 -60l4 -36l-20 -52l-140 -244l-28 -32l-12 -40l-24 -32l-336 -600l-24 -32l-16 -40l20 -24h552l64 -48l8 -44v-52l-20 -36l-28 -28l-40 -12h-776l-48 8l-48 64l-12 44l60 108l12 40l148 240l12 40l308 520l12 44l44 68l-16 28l-440 4l-60 48
l-8 48v56l20 36l32 20z" />
    <glyph glyph-name="bracketleft" unicode="[" horiz-adv-x="699" 
d="M36 1612h380l48 -28l40 -36l12 -60l-20 -56l-40 -36l-56 -24h-148l-20 -52v-1092l28 -8h152l52 -8l4 -12l36 -36l12 -68l-24 -52l-36 -36l-60 -8h-312l-68 8l-16 60v1504q10 25 36 40z" />
    <glyph glyph-name="backslash" unicode="\" horiz-adv-x="1233" 
d="M104 1476q31 -2 60 -24l48 -36l344 -468l28 -56l548 -752v-56l-48 -60l-56 -24l-64 20q-26 12 -44 40l-72 88l-60 104l-180 228l-28 52l-580 804v44l56 64z" />
    <glyph glyph-name="bracketright" unicode="]" horiz-adv-x="699" 
d="M149 1607l380 -4q18 -22 20 -56v-1512q-12 -22 -40 -35h-428l-44 51l-16 60q3 27 24 52l32 44l68 8h148l12 64v1060q-18 19 -44 28l-132 4l-64 32l-44 60l4 44l28 44q17 23 48 32z" />
    <glyph glyph-name="asciicircum" unicode="^" horiz-adv-x="919" 
d="M420 1798l32 -20l280 -276l44 -56q29 -22 40 -60l4 -32l-20 -48l-68 -32l-76 28l-196 204q-22 27 -56 28l-60 -44l-72 -76l-20 -32l-52 -48l-92 -64l-32 16l-56 44l-20 28l8 44l44 60l56 44l20 32l32 20l200 200q23 25 60 40z" />
    <glyph glyph-name="underscore" unicode="_" horiz-adv-x="1504" 
d="M24 -179h1332l40 -12l8 -44v-100l-16 -40l-24 -24l-36 -16h-1280l-36 16l-12 40l4 148z" />
    <glyph glyph-name="grave" unicode="`" horiz-adv-x="435" 
d="M88 1699l60 -24l160 -176l28 -56l-32 -52l-56 -28l-60 28l-132 116l-40 44l-16 52l12 8l32 48q22 17 44 40z" />
    <glyph glyph-name="a" unicode="a" horiz-adv-x="869" 
d="M296 1068h160l68 -12l120 -36l52 -28l44 -36l28 -52l-4 -784l-44 -36l-108 -52l-60 -16l-164 -16l-184 16l-64 32l-64 16l-44 32q-25 15 -32 48v316l12 68l100 60l116 40l304 4q16 28 16 64v76q-4 30 -36 40l-140 20l-132 -24l-56 -104l-64 -12l-68 12l-32 48l-20 60v80
q3 31 24 56l40 36l56 28zM312 412l-44 -20l-28 -32v-64l16 -44l40 -20h180l40 20l32 28v64l-24 36l-36 24l-56 8h-120z" />
    <glyph glyph-name="b" unicode="b" horiz-adv-x="862" 
d="M116 1464l48 -24l36 -32l28 -44l4 -276l24 -36l184 12l72 -12l52 -20l60 -12l92 -44l36 -36l8 -60v-760l-84 -68l-56 -12l-44 -24l-252 -16l-140 16l-44 28l-56 12l-80 60l-4 1184l8 64l20 52l40 28zM348 824l-100 -16l-16 -40l4 -504l32 -28l48 -8h144l56 16l20 36v508
l-36 24l-96 12h-56z" />
    <glyph glyph-name="c" unicode="c" horiz-adv-x="867" 
d="M328 1068l152 -4l148 -40l56 -28l52 -36q24 -20 32 -56l-4 -164q-10 -30 -36 -52l-56 -32h-56l-60 56l-8 36v40q-20 23 -56 28l-136 16l-124 -28l12 -536l48 -36h160q34 2 68 20q18 21 28 52l20 68l92 44l76 -44l32 -56v-172q-5 -32 -36 -52l-52 -32l-128 -44l-176 -16
l-208 24l-60 28l-48 36l-56 28l-4 768q0 32 24 64l44 40l56 28l132 40z" />
    <glyph glyph-name="d" unicode="d" horiz-adv-x="870" 
d="M656 1468l92 -52l20 -52l-4 -1252l-96 -56l-104 -40l-180 -16l-208 20l-40 28l-56 16q-18 18 -44 28l-36 36v776l24 44l36 36l100 44l56 12l52 20l64 8h124l68 -16l24 32v280l16 56zM356 832l-100 -20l-20 -28l8 -512l24 -32l48 -8h148l56 20l28 28l-4 512l-36 20z" />
    <glyph glyph-name="e" unicode="e" horiz-adv-x="870" 
d="M328 1068l156 -4l56 -20l68 -12l52 -28l56 -20l40 -40l12 -68v-312l-32 -48l-96 -60l-68 -12l-56 -24l-268 -8l-8 -28v-76l20 -60l60 -16h148l56 24q21 16 28 48l36 44l52 24l60 -12l44 -32l24 -60l-4 -152l-48 -32l-104 -52l-60 -16l-172 -16l-176 16l-64 32l-60 16
l-44 32q-27 12 -36 44v788l40 36l100 60zM356 832l-108 -24l-12 -40l8 -120l56 -8l120 4l104 28q22 10 24 36v64q-1 23 -24 40z" />
    <glyph glyph-name="f" unicode="f" horiz-adv-x="1000" 
d="M496 1468l160 -4l140 -32l56 -32l44 -40l8 -80l-32 -52l-60 -28l-24 -4l-40 16l-76 12h-200l-52 -12v-132q29 -15 68 -16h132l84 -44l32 -52l4 -44l-60 -68l-56 -28h-172q-32 -12 -36 -48v-664l-32 -68l-72 -48l-44 12l-56 28l-28 60l-8 76v636l-28 16l-76 12l-52 32
l-20 68l12 72l52 36l72 16q30 6 40 40v228l64 52l120 52l72 12z" />
    <glyph glyph-name="g" unicode="g" horiz-adv-x="864" 
d="M288 973h152l96 -16l68 -20l120 -60l40 -52v-1075q-5 -34 -32 -60l-56 -32l-132 -52l-256 -4l-144 36l-116 64l-28 64v88l20 68q9 29 36 56l84 8l60 -32l32 -56q8 -32 40 -48l68 -24h80l68 20q32 5 56 32v231l-8 8l-88 -24h-88l-156 24l-132 48l-48 40q-22 29 -24 68v540
l36 52l116 68l76 12zM372 737l-136 -28v-288l16 -72l72 -16l52 -4l116 8q32 8 48 40v336z" />
    <glyph glyph-name="h" unicode="h" horiz-adv-x="862" 
d="M116 1476l68 -32l40 -56l8 -280l12 -44l32 8h184l156 -36l120 -72q23 -31 24 -76v-768l-20 -80l-64 -32l-36 -8l-36 16l-52 48l-16 80l-4 668l-168 24l-84 -12q-41 -1 -48 -44v-676l-36 -60l-60 -36l-36 -4l-36 12q-32 15 -48 52l-16 80v1156l12 84q11 32 40 56
q28 18 64 32z" />
    <glyph glyph-name="i" unicode="i" horiz-adv-x="399" 
d="M60 1440h144l64 -8l28 -44l4 -136l-16 -60l-48 -20h-144l-64 8l-28 44v188l12 8zM128 1068h64l52 -48l16 -68l4 -804l-8 -72q-4 -29 -28 -56l-60 -20l-60 8q-23 13 -40 40q-22 21 -28 56l4 884l36 48q21 17 48 32z" />
    <glyph glyph-name="j" unicode="j" horiz-adv-x="633" 
d="M296 1434h144l64 -8l28 -44l4 -136l-16 -60l-48 -20h-144l-64 8l-28 44v188l12 8zM364 1062h60l28 -32l36 -24l8 -48l4 -1108l-16 -40l-32 -32l-40 -16l-36 -24l-92 -24l-36 -20l-112 -4l-52 8l-36 24l-48 68l12 48l20 40l32 28l192 40l20 36v992l20 40l32 28z" />
    <glyph glyph-name="k" unicode="k" horiz-adv-x="934" 
d="M116 1480l40 -16l32 -24l44 -68v-652l16 -36l24 32l60 52l48 60l32 20l24 32l192 188l44 12l52 -8l60 -48l8 -44v-52l-28 -28l-20 -32l-60 -48l-104 -116l-60 -48l-24 -32l-56 -52l376 -384l20 -40v-52l-20 -40l-24 -28l-44 -12l-20 -16l-88 40l-396 396l-8 -16l-4 -324
l-48 -64l-36 -16l-40 -8l-44 12l-36 20l-16 40l-8 48l-4 1196l20 92l24 28l32 20z" />
    <glyph glyph-name="l" unicode="l" horiz-adv-x="323" 
d="M104 1472l44 -12l60 -44l12 -44l4 -1216l-12 -92l-20 -36l-32 -20l-44 -8l-76 24l-40 68v1272l12 40l56 52z" />
    <glyph glyph-name="m" unicode="m" horiz-adv-x="1410" 
d="M328 1080l188 -8l44 -20l104 -16l108 20l48 20l188 4l52 -12l44 -20l56 -8l88 -44l64 -64v-768l-8 -60l-16 -48l-32 -32l-48 -16l-52 12l-44 24l-24 40l-12 52v680l-128 28l-178 -20l-2 -52v-644l-8 -56l-32 -36l-72 -36l-60 24l-36 32l-12 52l-4 704l-44 16l-60 4
l-52 12l-116 -16l-32 -20v-56l-4 -640l-48 -84l-48 -16l-40 -4l-60 28l-40 88v816l40 44l84 44l48 16l56 8l44 20z" />
    <glyph glyph-name="n" unicode="n" horiz-adv-x="869" 
d="M328 1080l132 -4l164 -36l108 -64q23 -17 36 -48l-4 -836l-32 -52l-56 -28l-12 -12l-44 16l-52 32l-20 68v672q-10 29 -44 40l-148 16l-124 -28l8 -680l-24 -60l-36 -48l-64 -20l-64 20l-32 52l-20 68v756q4 30 24 60l100 68z" />
    <glyph glyph-name="o" unicode="o" horiz-adv-x="864" 
d="M328 1068h116l52 -8l132 -36l36 -24l44 -12l56 -60l4 -796l-24 -36l-76 -40l-44 -12l-36 -24l-208 -20l-208 24l-32 24l-48 8l-28 28l-40 16l-24 36v744l8 52l60 56l40 16l32 24l52 4l88 28zM356 832l-100 -20l-20 -28l8 -512l24 -32l48 -8h148l56 20l28 28l-4 512
l-36 20z" />
    <glyph glyph-name="p" unicode="p" horiz-adv-x="863" 
d="M288 1070l192 -4l160 -44l88 -52l32 -32l4 -812l-76 -64l-56 -12l-40 -24l-60 -12l-260 -4l-36 -20v-204l-48 -88l-48 -20l-40 -8l-60 32l-40 96l4 1136l12 4l32 36l44 20l40 28l108 28zM372 834l-100 -16l-36 -24v-512l24 -36l40 -12h164l48 12l28 28l4 508
q-6 20 -24 32z" />
    <glyph glyph-name="q" unicode="q" horiz-adv-x="869" 
d="M296 1120h136l64 -8l200 -68l72 -68v-1156l-16 -52l-40 -28l-48 -20l-52 16l-44 24l-20 52v244l-16 8l-144 -12l-224 28l-136 68q-18 18 -28 44v784l48 52l48 20l40 28zM356 884l-100 -20l-20 -28l8 -512l24 -32l48 -8h148l56 20l28 28l-4 512l-36 20z" />
    <glyph glyph-name="r" unicode="r" horiz-adv-x="829" 
d="M300 1072h128l56 -8l44 -20l56 -8l52 -16l80 -48l12 -52l-4 -252l-28 -36l-88 -32l-48 16l-36 28l-16 48v64l-8 56l-104 24l-60 -4l-104 -24l8 -52l-4 -636l-36 -92l-44 -20l-56 -8l-44 20l-52 80l-4 824l60 68l88 44l56 8l44 20z" />
    <glyph glyph-name="s" unicode="s" horiz-adv-x="873" 
d="M344 1052h104l120 -32l44 -4l68 -36l36 -12l24 -28q28 -24 36 -64v-84l-36 -80l-24 -32l-40 -8l-88 12q-26 28 -36 68q-9 35 -48 48l-132 16l-128 -28l8 -40l-4 -44l68 -32l156 -48l84 -16l32 -20l116 -32l64 -36l8 -396q-12 -37 -52 -52l-28 -24l-36 -12l-64 -36l-420 4
l-24 24q-37 6 -76 28l-64 36l-12 88l4 96l44 60l64 36l68 -36q36 -17 40 -60l48 -52l40 -8h144q36 1 72 24q25 28 28 72l-12 40l-24 24l-120 32l-32 20l-84 16l-36 16l-120 32l-68 28q-42 12 -44 60v300q7 35 36 64l28 24l104 48z" />
    <glyph glyph-name="t" unicode="t" horiz-adv-x="913" 
d="M380 1360h56l52 -28l24 -44l16 -56v-136l28 -36h136l48 -20l40 -28l28 -40l4 -52l-32 -52l-36 -32l-52 -16l-132 4q-26 -7 -32 -36l-4 -676l-44 -92l-52 -16l-44 -4l-60 32l-40 96v680l-48 16l-120 -4l-52 28l-36 32l-28 44l8 60l28 40l100 36l132 4l16 52v136l44 92z
" />
    <glyph glyph-name="u" unicode="u" horiz-adv-x="867" 
d="M92 1052h56l60 -52l28 -60l4 -664l28 -52l112 -12l120 8l44 36l4 716l8 24l44 40q29 15 68 16q30 -4 56 -28l40 -44l4 -832l-8 -60l-180 -88h-384l-56 32l-64 20l-52 32q-21 20 -24 56v804l44 72z" />
    <glyph glyph-name="v" unicode="v" horiz-adv-x="890" 
d="M72 1052h56l64 -48l28 -56l12 -68l24 -60l60 -272l24 -56l12 -72l24 -56l12 -72l12 -28l16 104l28 52l8 76l28 56l12 68l72 260l12 72l32 52l40 40l36 8h40l44 -40l24 -56l-16 -140l-24 -60l-12 -72l-24 -56l-12 -72l-24 -60l-24 -140l-28 -56l-4 -76l-28 -56l-12 -68
l-28 -56l-40 -44h-236l-40 44l-28 56l-8 72l-28 56l-8 76l-28 56l-24 136l-24 60l-12 72l-24 60l-12 68l-28 56l-16 148l28 56z" />
    <glyph glyph-name="w" unicode="w" horiz-adv-x="1357" 
d="M64 1056h56l48 -32l44 -92l12 -120l20 -48l12 -56l4 -64l40 -160l4 -64l12 -12l36 56l20 112l24 40l8 60l36 100l8 60l24 40l8 60l20 48l32 36l48 20l60 4l52 -16l44 -24l40 -92l8 -60l24 -44l20 -112l24 -44l8 -60l36 -96l4 -64l8 -28l12 16l36 96l16 120l20 48l52 280
q1 27 24 48l32 32l56 12l52 -16l36 -32l12 -56l-4 -64l-20 -48l-12 -52l-4 -64l-16 -52l-92 -440l-12 -124l-44 -88l-48 -20h-136l-48 20l-40 96l-68 264l-24 44l-16 116l-24 44l-8 60l-12 32l-44 -108l-8 -60l-24 -44l-20 -112l-24 -44l-8 -56l-36 -100l-8 -60l-52 -80
l-56 -12h-68l-60 8l-36 32l-24 44l-8 60l-28 104l-4 64l-32 100l-12 120l-32 104l-4 64l-40 160v128z" />
    <glyph glyph-name="x" unicode="x" horiz-adv-x="933" 
d="M104 1076h72l60 -60l180 -272l8 20l44 52l112 172q13 29 44 52q22 26 60 36h52l68 -76l-4 -88l-232 -344q3 -35 28 -68l188 -288l44 -116l-56 -72l-72 -24l-64 32l-224 320l-208 -300q-20 -26 -56 -40l-12 -12l-56 16q-34 10 -56 44l-24 68l32 64l232 344q-3 36 -32 64
l-152 228l-32 64q-21 30 -24 72q0 36 28 68q21 23 52 44z" />
    <glyph glyph-name="y" unicode="y" horiz-adv-x="922" 
d="M108 1079l72 -24l40 -56l16 -76l28 -64l68 -212l16 -76l32 -64l12 -80q19 14 28 40l28 64l44 140q6 34 28 68l12 80l32 60l16 80l32 60l60 56h60l60 -44q25 -24 32 -64q0 -39 -20 -76l-20 -72l-28 -64l-16 -80l-28 -64l-88 -284l-28 -64l-16 -80l-28 -64l-16 -80l-28 -64
l-16 -76q-20 -28 -24 -68q-6 -32 -28 -64l-32 -64l-60 -28l-68 24l-68 68l4 48l28 64l16 80q21 26 28 64l20 72q-5 37 -44 52l-32 60l-48 136l-16 80l-32 60l-12 80l-32 64l-16 76l-68 212l-8 48l8 32l40 52q23 22 60 32z" />
    <glyph glyph-name="z" unicode="z" horiz-adv-x="915" 
d="M136 1044h504l64 -20l44 -40q21 -26 24 -64l-56 -112l-380 -580l36 -8l384 -4l56 -64l4 -80l-40 -44q-21 -22 -56 -28l-664 8l-40 44q-16 31 -16 72l156 264l40 44l196 308q10 26 36 48l-60 20h-236l-64 36q-26 19 -32 56v76l40 44q28 7 60 24z" />
    <glyph glyph-name="asciitilde" unicode="~" horiz-adv-x="792" 
d="M264 1587l164 -116l108 76l52 24l48 -4l4 -12l40 -40l12 -40l-40 -64l-40 -36l-100 -52l-88 -68l-56 24l-88 68l-8 16l-40 -8l-88 -64l-56 -24l-48 20q-27 9 -40 40v60l36 44l40 36z" />
    <glyph glyph-name="Ccedilla" unicode="&#xc7;" horiz-adv-x="1082" 
d="M440 1428l132 -4l48 -16l120 -16l36 -28l52 -16l128 -72l24 -44v-184l-20 -60l-28 -40l-52 -16l-60 8q-25 4 -40 28l-28 36l-12 56v68l-80 48l-184 16l-180 -20l-36 -28q-19 -13 -28 -36l4 -864l56 -8l40 -28l56 -8l248 8l44 24l56 12l4 112l20 64l32 32l44 24h52l48 -32
l28 -40l16 -48l-4 -196l-24 -44l-172 -96l-52 -12l-44 -24l-64 -4q-25 -7 -28 -36l-4 -260l-44 -24h-268l-52 16l-20 44l-12 8l4 44l28 40l44 24l128 4q16 19 16 48v68q-12 21 -40 24l-60 4l-56 12l-44 24l-52 16l-84 44l-40 28l-28 40l-8 1056l8 60l44 20l36 32l44 24
l144 56z" />
    <glyph glyph-name="Odieresis" unicode="&#xd6;" 
d="M240 1784h124l56 -64l-4 -120l-28 -32l-48 -12l-120 4l-44 16l-12 48l-4 60l12 48l20 40zM604 1784l116 -4l68 -56l4 -116l-24 -36l-44 -16l-120 4l-44 12l-24 40l4 116l24 36zM440 1456h80l196 -32l48 -28l60 -16l140 -88q15 -25 16 -60l-4 -1048l-40 -52l-44 -32
l-56 -20l-48 -28l-60 -16l-52 -24l-140 -12l-204 8l-72 16l-160 68l-84 68l-16 60l4 1064l136 92l60 16l48 28l132 20zM472 1220l-172 -20l-60 -32l-8 -88v-804l100 -36l80 -12h184l140 44l4 888l-92 48z" />
    <glyph glyph-name="Udieresis" unicode="&#xdc;" horiz-adv-x="1080" 
d="M240 1812h124l56 -64l-4 -120l-28 -32l-48 -12l-120 4l-44 16l-12 48l-4 60l12 48l20 40zM604 1812l116 -4l68 -56l4 -116l-24 -36l-44 -16l-120 4l-44 12l-24 40l4 116l24 36zM120 1492l76 -44l24 -36l12 -44v-1048l24 -36l32 -24l152 -24h104l148 28l36 24l12 44v1048
l20 40l28 32l32 24l40 12l80 -36l36 -84l4 -1160l-20 -40l-64 -52l-76 -40l-48 -12l-32 -24l-56 -4l-88 -28l-108 -8l-108 8l-44 16l-100 20l-32 24l-88 28l-100 72l-16 44v1108l16 100l28 32l36 24z" />
    <glyph glyph-name="ccedilla" unicode="&#xe7;" horiz-adv-x="869" 
d="M328 1067l152 -4l228 -76l24 -28l32 -20v-196l-12 -40l-60 -44l-48 -4l-40 12l-24 28l-28 20l-12 92l-176 24l-88 -16q-40 -6 -40 -48l8 -500l24 -28l92 -12l140 8l32 24l16 32l4 48l16 32l92 44l80 -44l20 -32l8 -44v-152q-8 -35 -44 -56l-28 -24l-108 -44l-44 -8
l-20 -27v-256l-24 -28l-44 -8h-256l-40 12l-40 64l12 40l44 56l44 8l100 4q14 10 20 28v99l-140 12l-40 12l-28 20l-44 8l-24 28l-36 12l-28 28v764l8 44l52 52l36 12l28 24l88 16l32 16z" />
    <glyph glyph-name="odieresis" unicode="&#xf6;" horiz-adv-x="867" 
d="M132 1428h124l56 -64l-4 -120l-28 -32l-48 -12l-120 4l-44 16l-12 48l-4 60l12 48l20 40zM496 1428l116 -4l68 -56l4 -116l-24 -36l-44 -16l-120 4l-44 12l-24 40l4 116l24 36zM328 1068h116l52 -8l132 -36l36 -24l44 -12l56 -60l4 -796l-24 -36l-76 -40l-44 -12l-36 -24
l-208 -20l-208 24l-32 24l-48 8l-28 28l-40 16l-24 36v744l8 52l60 56l40 16l32 24l52 4l88 28zM356 832l-100 -20l-20 -28l8 -512l24 -32l48 -8h148l56 20l28 28l-4 512l-36 20z" />
    <glyph glyph-name="udieresis" unicode="&#xfc;" horiz-adv-x="868" 
d="M172 1412h124l56 -64l-4 -120l-28 -32l-48 -12l-120 4l-44 16l-12 48l-4 60l12 48l20 40zM536 1412l116 -4l68 -56l4 -116l-24 -36l-44 -16l-120 4l-44 12l-24 40l4 116l24 36zM92 1052h56l60 -52l28 -60l4 -664l28 -52l112 -12l120 8l44 36l4 716l8 24l44 40
q29 15 68 16q30 -4 56 -28l40 -44l4 -832l-8 -60l-180 -88h-384l-56 32l-64 20l-52 32q-21 20 -24 56v804l44 72z" />
    <glyph glyph-name="registered" unicode="&#xae;" horiz-adv-x="884" 
d="M348 1395h84l88 -28q32 -9 64 -36l108 -88l44 -56l28 -72l16 -80v-92q-2 -38 -24 -76l-28 -72l-44 -52l-112 -88q-28 -22 -68 -28l-72 -28l-44 -4l-120 32q-37 3 -68 32l-60 36l-52 48l-76 124l-12 168l16 100l76 120l52 48l60 40q30 20 72 24zM392 1275l-96 -8l-116 -80
l-40 -56l-32 -68l-4 -92q1 -37 20 -76l36 -64l48 -52l28 -16l8 40v388q29 25 72 28h64l116 -20l48 -48l8 -36l-4 -152l-60 -68l36 -32l44 -56l28 -8l24 36l56 140l-12 84l-24 76l-44 52l-52 44l-64 36zM388 1123l-44 -20l-8 -52l12 -48l52 -4l48 16l4 56l-16 44zM352 903
l-16 -44v-52l-20 -36l-52 -36l112 -16l104 8l36 12l-112 112l-32 20z" />
    <glyph glyph-name="copyright" unicode="&#xa9;" horiz-adv-x="1222" 
d="M456 1244h212l40 -28l56 -12q26 -4 44 -28l52 -16l144 -136l72 -132l16 -56l28 -160l-40 -192l-108 -168l-156 -120l-56 -16l-40 -28l-188 -12l-132 16l-44 24l-56 16l-76 64l-44 24l-96 112l-16 56l-28 40l-40 168l12 128l20 48l8 60l32 40l20 48l60 80l40 28l72 68
l92 44l56 16zM500 1108l-44 -12l-32 -20l-44 -8l-68 -40l-24 -24l-32 -20l-44 -64l-16 -36l-24 -28l-4 -48l-20 -32l-12 -80l8 -56l16 -40l16 -88l24 -28l16 -36l76 -80l32 -24l100 -52l48 -8l152 -4l88 16l32 20l40 12l24 28l32 20l28 28l84 124l4 48l28 128l-40 168
l-28 28l-12 40l-76 80l-36 16l-28 24l-80 24l-32 20zM496 1004h100q38 -1 76 -24l72 -24l32 -64l-4 -96q-16 -32 -52 -44q-37 6 -68 32l-28 68l-84 12q-33 -10 -52 -44l4 -288l84 -12l48 4l12 32q10 33 40 56l24 16l44 -16q24 -26 32 -68l-4 -92l-52 -48l-76 -20l-184 4
q-35 4 -68 28q-30 18 -44 56v440l16 28z" />
    <glyph glyph-name="trademark" unicode="&#x2122;" horiz-adv-x="1085" 
d="M48 1389h352l52 -20l8 -44l-4 -16l-44 -28l-112 -4l-8 -496l-40 -44l-28 -12l-52 48l-8 16l4 464q-11 25 -40 28h-72l-48 20l-8 44l4 16q18 15 44 28zM580 1389h64l48 -12l16 -44l24 -36l20 -100l16 40l24 36l8 56l20 40l40 20h60l48 -12l20 -44v-540l-16 -48l-36 -16
l-40 20l-16 48l-4 356l-16 -20l-8 -48l-32 -88l-24 -40l-32 -24l-36 12l-28 36l-16 44l-12 68l-20 -16l-12 -48l-4 -240l-20 -36l-36 -28l-40 20l-16 44v536l12 48z" />
    <glyph glyph-name="guillemotleft" unicode="&#xab;" horiz-adv-x="1233" 
d="M540 1199l52 -12l60 -64l4 -44l-52 -88l-96 -88l-56 -68l-68 -60l-48 -72l16 -36l148 -164l32 -28l52 -72l36 -28l28 -32l8 -56l-56 -68l-44 -20l-44 12l-40 20l-472 456l20 44l28 32l104 84l88 96l40 24l216 216zM1024 1199l48 -16l56 -68l4 -32l-32 -56l-272 -288
l-20 -44l20 -32l32 -28l52 -72l184 -188l20 -44l8 -48l-24 -36l-72 -52l-88 36l-160 152l-24 36l-228 208l-52 64l16 48l36 24l448 424z" />
    <glyph glyph-name="guillemotright" unicode="&#xbb;" horiz-adv-x="1228" 
d="M576 1199l52 -12l220 -216l36 -24l224 -208l20 -44l-48 -68l-36 -24l-92 -96l-68 -56l-216 -216l-40 -24l-44 -16l-44 20l-36 28l-24 36v56l112 136l68 56l136 172l-20 40l-272 288l-24 36l-8 28l4 24l56 68zM80 1195h64l28 -32l452 -416l24 -36l4 -32l-388 -372l-28 -36
l-72 -52l-40 -20l-92 36l-20 40l-8 48l76 108l100 88l84 100l32 28l24 36l-8 40l-272 284l-40 84l20 40l28 36z" />
    <glyph glyph-name="Otilde" unicode="&#xd5;" horiz-adv-x="1413" 
d="M296 1068l232 -12l40 -20l88 -16l208 48h120l56 -8l40 -16l100 -24l36 -24l44 -16l52 -68l-4 -360l-60 -60l-80 -40l-52 -8l-44 -20l-52 -8l-236 -4l-16 -40v-60l8 -52l40 -24l108 -8l112 8l32 28l48 76l88 32l44 -16l36 -24l28 -92v-124l-72 -48l-128 -52l-224 -12
l-164 16l-36 24l-36 8l-96 -40l-168 -12l-216 24l-40 24l-48 12l-32 28l-40 20l-12 48v304l8 52l28 32l76 44l48 12l36 24l56 8l232 8l56 -4l8 48l-4 120l-152 28l-52 -4l-100 -20l-16 -44l-24 -40l-32 -28l-56 -4l-52 8l-52 68l-8 52v60l8 56l64 56l84 36l52 8zM924 832
l-112 -16l-44 -20v-124q3 -23 28 -32h128l148 40l4 120l-96 28zM312 412l-44 -20l-28 -32v-64l16 -44l40 -20h180l40 20l32 28v124l-52 8h-184z" />
    <glyph glyph-name="OE" unicode="&#x152;" horiz-adv-x="1695" 
d="M468 1464l120 -12l44 -16l104 -8l68 12h572l116 -12l28 -36l20 -44l-12 -48l-20 -40l-36 -28l-52 -16h-380l-52 -8l-8 -56v-256l36 -24l316 -4l28 -36l36 -28l4 -60l-12 -52l-32 -32l-52 -12l-316 -4l-8 -52v-320l20 -40h508l44 -24l32 -28l12 -56l-8 -56l-72 -56h-700
l-100 16l-56 -12l-172 -16l-176 16l-52 12l-92 36l-120 68l-32 36l-16 48v1016l8 56l72 56l84 44l52 12l40 24zM472 1224l-172 -20l-60 -32l-8 -88v-804l100 -36l80 -12h184l140 44l4 888l-92 48z" />
    <glyph glyph-name="oe" unicode="&#x153;" horiz-adv-x="1413" 
d="M296 1068h164l188 -44l80 12l76 24l188 8l160 -40l68 -32l60 -40q25 -25 32 -68v-292q-5 -36 -28 -72l-60 -40l-144 -56l-88 -12l-192 -4l-32 -8v-124l12 -20l68 -28l188 4l88 108l72 28l72 -28l36 -64l8 -164l-76 -48l-76 -24q-29 -23 -72 -28l-152 -16l-208 20l-68 32
l-64 -32l-216 -20l-148 12l-148 48l-84 56v812l80 64l64 32l84 16q29 15 68 28zM356 832l-100 -20l-20 -28l8 -512l24 -32l48 -8h148l56 20l28 28l-4 512l-36 20zM924 832l-112 -16l-44 -20v-124q3 -23 28 -32h128l148 40l4 120l-96 28z" />
    <glyph glyph-name="guilsinglleft" unicode="&#x2039;" horiz-adv-x="754" 
d="M540 1200l52 -12l60 -64l4 -44l-52 -88l-96 -88l-56 -68l-68 -60l-48 -72l16 -36l148 -164l32 -28l52 -72l36 -28l28 -32l8 -56l-56 -68l-44 -20l-44 12l-40 20l-472 456l20 44l28 32l104 84l88 96l40 24l216 216z" />
    <glyph glyph-name="guilsinglright" unicode="&#x203a;" horiz-adv-x="752" 
d="M80 1201h64l28 -32l452 -416l24 -36l4 -32l-388 -372l-28 -36l-72 -52l-40 -20l-92 36l-20 40l-8 48l76 108l100 88l84 100l32 28l24 36l-8 40l-272 284l-40 84l20 40l28 36z" />
    <glyph glyph-name="dotlessi" unicode="&#x131;" horiz-adv-x="399" 
d="M128 1068h64l52 -48l16 -68l4 -804l-8 -72q-4 -29 -28 -56l-60 -20l-60 8q-23 13 -40 40q-22 21 -28 56l4 884l36 48q21 17 48 32z" />
    <glyph glyph-name="Eth" unicode="&#xd0;" 
d="M440 1460l128 -4l48 -16l116 -16l40 -24l48 -16l40 -28l48 -16l72 -60v-192l-32 -100l-48 -20l-60 -4l-48 16l-48 84l-4 60l-12 52l-44 24l-52 12l-160 12l-140 -12l-48 -16l-40 -24l-12 -52l4 -840l52 -12l40 -24l56 -12l60 -4l188 8l40 24l68 20v168q0 26 -24 40
l-128 4l-40 24l-24 44l-12 44l20 44l72 60l320 4l48 -20l8 -56v-392l-8 -56l-24 -44l-124 -68l-96 -36l-40 -24l-200 -16l-216 24l-40 24l-56 12l-36 28l-52 16l-72 56l-16 48v1040l16 52l120 76l144 52zM416 1806l164 -116l108 76l52 24l48 -4l4 -12l40 -40l12 -40l-40 -64
l-40 -36l-100 -52l-88 -68l-56 24l-88 68l-8 16l-40 -8l-88 -64l-56 -24l-48 20q-26 9 -40 40v60l36 44l40 36z" />
    <glyph glyph-name="eth" unicode="&#xf0;" horiz-adv-x="864" 
d="M288 973h152l96 -16l68 -20l120 -60l40 -52v-1075q-5 -34 -32 -60l-56 -32l-132 -52l-256 -4l-144 36l-116 64l-28 64v88l20 68q9 29 36 56l84 8l60 -32l32 -56q8 -32 40 -48l68 -24h80l68 20q32 5 56 32v231l-8 8l-88 -24h-88l-156 24l-132 48l-48 40q-22 29 -24 68v540
l36 52l116 68l76 12zM372 737l-136 -28v-288l16 -72l72 -16l52 -4l116 8q32 8 48 40v336zM299 1324l164 -116l108 76l52 24l48 -4l4 -12l40 -40l12 -40l-40 -64l-40 -36l-100 -52l-88 -68l-56 24l-88 68l-8 16l-40 -8l-88 -64l-56 -24l-48 20q-26 9 -40 40v60l36 44l40 36z
" />
    <glyph glyph-name="Yacute" unicode="&#xdd;" horiz-adv-x="914" 
d="M368 1776h124l56 -64l-4 -120l-28 -32l-48 -12l-120 4l-44 16l-12 48l-4 60l12 48l20 40zM128 1428h520l80 -8q28 -12 48 -40l20 -68l-28 -60l-44 -40l-168 -8q-26 -18 -28 -56v-920l20 -8h172q33 -4 56 -32q22 -17 40 -48l-8 -80l-40 -44q-31 -15 -72 -16h-608
q-29 9 -48 36l-36 56l-4 16l8 44l44 56l76 12h136l28 8v952q-24 22 -60 24l-136 4l-12 20l-44 44l-8 36l4 40q5 30 28 60z" />
    <glyph glyph-name="yacute" unicode="&#xfd;" horiz-adv-x="324" 
d="M88 1068h64l52 -48l16 -68l4 -804l-8 -72q-4 -29 -28 -56l-60 -20l-60 8q-23 13 -40 40q-22 21 -28 56l4 884l36 48q21 17 48 32z" />
    <glyph glyph-name="Thorn" unicode="&#xde;" horiz-adv-x="1075" 
d="M420 1444h136l52 -16l116 -20l96 -44l120 -84l4 -200l-8 -60l-40 -28q-13 -22 -40 -28h-60l-72 64l-8 128l-92 44l-144 12l-164 -20l-40 -28q-15 -18 -16 -48v-136l8 -60l44 -20l60 -12l40 -24l60 -8l48 -24l108 -24l44 -24l60 -8l48 -20l108 -28l88 -52v-472l-8 -60
l-48 -24l-36 -32l-52 -16l-40 -28l-56 -12l-44 -20l-60 -12l-308 4l-160 52l-88 52l-48 20l-24 44l-4 200l16 52l32 36l76 24l68 -36l24 -44l8 -60v-68l148 -56l260 4l44 24l52 16q23 10 24 40v204l-36 28l-48 20l-56 12l-48 24l-56 8l-100 36l-60 8l-44 28l-56 12l-96 36
l-60 8l-40 28l-16 52l4 472l80 60l136 68l116 20zM418 262h240q29 -3 52 -28l36 -44v-44l-388 -523l-60 -20h-80l-60 20l-28 52v44l8 28l32 48l44 116l32 48l20 59l108 208q18 20 44 36z" />
    <glyph glyph-name="thorn" unicode="&#xfe;" horiz-adv-x="873" 
d="M344 1052h104l120 -32l44 -4l68 -36l36 -12l24 -28q28 -24 36 -64v-84l-36 -80l-24 -32l-40 -8l-88 12q-26 28 -36 68q-9 35 -48 48l-132 16l-128 -28l8 -40l-4 -44l68 -32l156 -48l84 -16l32 -20l116 -32l64 -36l8 -396q-12 -37 -52 -52l-28 -24l-36 -12l-64 -36l-420 4
l-24 24q-37 6 -76 28l-64 36l-12 88l4 96l44 60l64 36l68 -36q36 -17 40 -60l48 -52l40 -8h144q36 1 72 24q25 28 28 72l-12 40l-24 24l-120 32l-32 20l-84 16l-36 16l-120 32l-68 28q-42 12 -44 60v300q7 35 36 64l28 24l104 48zM324 216h240q30 -3 52 -28l36 -44v-44
l-310 -392l-60 -20h-80l-60 20l-28 52v44l8 28l32 48l44 116l32 48l20 60l30 76q18 21 44 36z" />
    <glyph glyph-name="Gbreve" unicode="&#x11e;" 
d="M440 1460l128 -4l48 -16l116 -16l40 -24l48 -16l40 -28l48 -16l72 -60v-192l-32 -100l-48 -20l-60 -4l-48 16l-48 84l-4 60l-12 52l-44 24l-52 12l-160 12l-140 -12l-48 -16l-40 -24l-12 -52l4 -840l52 -12l40 -24l56 -12l60 -4l188 8l40 24l68 20v168q0 26 -24 40
l-128 4l-40 24l-24 44l-12 44l20 44l72 60l320 4l48 -20l8 -56v-392l-8 -56l-24 -44l-124 -68l-96 -36l-40 -24l-200 -16l-216 24l-40 24l-56 12l-36 28l-52 16l-72 56l-16 48v1040l16 52l120 76l144 52zM416 1806l164 -116l108 76l52 24l48 -4l4 -12l40 -40l12 -40l-40 -64
l-40 -36l-100 -52l-88 -68l-56 24l-88 68l-8 16l-40 -8l-88 -64l-56 -24l-48 20q-26 9 -40 40v60l36 44l40 36z" />
    <glyph glyph-name="gbreve" unicode="&#x11f;" horiz-adv-x="864" 
d="M288 973h152l96 -16l68 -20l120 -60l40 -52v-1075q-5 -34 -32 -60l-56 -32l-132 -52l-256 -4l-144 36l-116 64l-28 64v88l20 68q9 29 36 56l84 8l60 -32l32 -56q8 -32 40 -48l68 -24h80l68 20q32 5 56 32v231l-8 8l-88 -24h-88l-156 24l-132 48l-48 40q-22 29 -24 68v540
l36 52l116 68l76 12zM372 737l-136 -28v-288l16 -72l72 -16l52 -4l116 8q32 8 48 40v336zM299 1324l164 -116l108 76l52 24l48 -4l4 -12l40 -40l12 -40l-40 -64l-40 -36l-100 -52l-88 -68l-56 24l-88 68l-8 16l-40 -8l-88 -64l-56 -24l-48 20q-26 9 -40 40v60l36 44l40 36z
" />
    <glyph glyph-name="Idotaccent" unicode="&#x130;" horiz-adv-x="914" 
d="M368 1776h124l56 -64l-4 -120l-28 -32l-48 -12l-120 4l-44 16l-12 48l-4 60l12 48l20 40zM128 1428h520l80 -8q28 -12 48 -40l20 -68l-28 -60l-44 -40l-168 -8q-26 -18 -28 -56v-920l20 -8h172q33 -4 56 -32q22 -17 40 -48l-8 -80l-40 -44q-31 -15 -72 -16h-608
q-29 9 -48 36l-36 56l-4 16l8 44l44 56l76 12h136l28 8v952q-24 22 -60 24l-136 4l-12 20l-44 44l-8 36l4 40q5 30 28 60z" />
    <glyph glyph-name="Scedilla" unicode="&#x15e;" horiz-adv-x="1075" 
d="M420 1444h136l52 -16l116 -20l96 -44l120 -84l4 -200l-8 -60l-40 -28q-13 -22 -40 -28h-60l-72 64l-8 128l-92 44l-144 12l-164 -20l-40 -28q-15 -18 -16 -48v-136l8 -60l44 -20l60 -12l40 -24l60 -8l48 -24l108 -24l44 -24l60 -8l48 -20l108 -28l88 -52v-472l-8 -60
l-48 -24l-36 -32l-52 -16l-40 -28l-56 -12l-44 -20l-60 -12l-308 4l-160 52l-88 52l-48 20l-24 44l-4 200l16 52l32 36l76 24l68 -36l24 -44l8 -60v-68l148 -56l260 4l44 24l52 16q23 10 24 40v204l-36 28l-48 20l-56 12l-48 24l-56 8l-100 36l-60 8l-44 28l-56 12l-96 36
l-60 8l-40 28l-16 52l4 472l80 60l136 68l116 20zM398 221h240q29 -3 52 -28l36 -44v-44l-311 -392l-60 -20h-80l-60 20l-28 52v44l8 28l32 48l44 115l32 48l20 60l31 77q18 20 44 36z" />
    <glyph glyph-name="scedilla" unicode="&#x15f;" horiz-adv-x="873" 
d="M344 1052h104l120 -32l44 -4l68 -36l36 -12l24 -28q28 -24 36 -64v-84l-36 -80l-24 -32l-40 -8l-88 12q-26 28 -36 68q-9 35 -48 48l-132 16l-128 -28l8 -40l-4 -44l68 -32l156 -48l84 -16l32 -20l116 -32l64 -36l8 -396q-12 -37 -52 -52l-28 -24l-36 -12l-64 -36l-420 4
l-24 24q-37 6 -76 28l-64 36l-12 88l4 96l44 60l64 36l68 -36q36 -17 40 -60l48 -52l40 -8h144q36 1 72 24q25 28 28 72l-12 40l-24 24l-120 32l-32 20l-84 16l-36 16l-120 32l-68 28q-42 12 -44 60v300q7 35 36 64l28 24l104 48zM324 216h240q30 -3 52 -28l36 -44v-44
l-310 -392l-60 -20h-80l-60 20l-28 52v44l8 28l32 48l44 116l32 48l20 60l30 76q18 21 44 36z" />
    <glyph glyph-name="overscore" unicode="&#xaf;" horiz-adv-x="1504" 
d="M24 1846h1332l40 -12l8 -44v-100l-16 -40l-24 -24l-36 -16h-1280l-36 16l-12 40l4 148z" />
    <glyph glyph-name="spade" unicode="&#x2660;" horiz-adv-x="1542" 
d="M659 0h-271q41 50 56 90q25 64 25 133q0 65 -20 97q-11 19 -25 19q-13 0 -24 -10q-15 -14 -30 -51q-38 -93 -82.5 -128t-99.5 -35q-76 0 -132 64.5t-56 174.5q0 60 20 107q30 69 63 112l236 310q76 98 203 296q100 -160 204 -296l239 -310q85 -112 85 -226
q0 -103 -57 -167.5t-133 -64.5q-54 0 -95.5 31.5t-84.5 130.5q-18 41 -32 54q-9 8 -19 8q-17 0 -30 -20q-19 -29 -19 -97q0 -118 79 -222z" />
    <glyph glyph-name="club" unicode="&#x2663;" horiz-adv-x="1542" 
d="M717 0h-263q49 68 64.5 113t15.5 116q0 58 -5 79q-3 16 -10.5 22.5t-14.5 6.5q-10 0 -23.5 -8t-67 -63t-86.5 -71q-57 -27 -115 -27q-96 0 -154 67t-58 179q0 75 30 142.5t80 96.5t113 29q37 0 69 -10t99 -46.5t92 -36.5q14 0 22 8t8 23q0 18 -8 29q-13 16 -55 42
q-59 36 -92 96.5t-33 119.5q0 93 70 158t193 65q121 0 190 -64.5t69 -159.5q0 -64 -33.5 -122t-84 -89.5t-60.5 -44t-10 -27.5t9.5 -24.5t22.5 -9.5q24 0 87 36q101 58 173 58q69 0 117.5 -30.5t76 -100.5t27.5 -138q0 -111 -57.5 -178t-154.5 -67q-56 0 -103.5 22.5
t-121.5 100.5q-31 33 -43 39.5t-23 6.5q-9 0 -14 -4q-8 -7 -12 -25q-6 -25 -6 -78q0 -76 15.5 -121.5t64.5 -109.5z" />
    <glyph glyph-name="heart" unicode="&#x2665;" horiz-adv-x="1542" 
d="M521 -31l-170 241q-28 40 -150.5 196.5t-161.5 247t-39 181.5q0 86 30.5 149.5t87 94.5t116.5 31q85 0 154 -54.5t90 -141.5q10 -40 24 -55q7 -8 18 -8q15 0 22 8q15 16 26 55q25 93 89.5 144t153.5 51q104 0 170 -73t66 -203q0 -88 -40.5 -182t-163.5 -249t-151 -194z
" />
    <glyph glyph-name="diamond" unicode="&#x2666;" horiz-adv-x="1542" 
d="M472 1155l462 -592l-462 -594l-472 594z" />
  </font>
</defs>
</svg>
